PathFileType	4	(X/Y/Z)	pose_F01_0-96.trc
DataRate	CameraRate	NumFrames	NumMarkers	Units	OrigDataRate	OrigDataStartFrame	OrigNumFrames
30	30	7	21	m	30	72	96
Frame#	Time	CHip			RHip			RKnee			RAnkle			RBigToe			RSmallToe			RHeel			LHip			LKnee			LAnkle			LBigToe			LSmallToe			LHeel			Neck			Nose			RShoulder			RElbow			RWrist			LShoulder			LElbow			LWrist			
		X1	Y1	Z1	X2	Y2	Z2	X3	Y3	Z3	X4	Y4	Z4	X5	Y5	Z5	X6	Y6	Z6	X7	Y7	Z7	X8	Y8	Z8	X9	Y9	Z9	X10	Y10	Z10	X11	Y11	Z11	X12	Y12	Z12	X13	Y13	Z13	X14	Y14	Z14	X15	Y15	Z15	X16	Y16	Z16	X17	Y17	Z17	X18	Y18	Z18	X19	Y19	Z19	X20	Y20	Z20	X21	Y21	Z21	
72	2.4	-0.11182666935506831	1.8746194931054185	-0.37832847997384644	-0.11611920717340933	1.8690016044551634	-0.3205706469972201	-0.11503403126762374	1.743035737487168	-0.2846995396809444	-0.13135981383018244	1.615128714110748	-0.3517621645055419							-0.12312533516857899	1.621005938097828	-0.315362999972652	-0.1082575700032723	1.8793617536448803	-0.44215632550699263	-0.10238451440282895	1.7494528044894202	-0.46388362896085555	-0.0886969022353706	1.6115543563118306	-0.48710135327394205	-0.1229005987738159	1.5779249807700813	-0.4932854845763746	-0.111656823594021	1.5823385142874653	-0.5192859477285107	-0.08009123103049041	1.599234684800624	-0.47257214736489755	-0.10038385653059513	2.017343290270727	-0.366461427644939	-0.12461294999225801	2.0658917995449406	-0.33951666057106084	-2.6579129874343104	1.9382767522928397	2.937455966294186	-0.13486428072657017	1.9579755246931085	-0.22175300242615703	-0.15707199521779966	2.0040205784310645	-0.31424091985980385	-0.09652555037909526	2.02869115206424	-0.4477321351730951	-0.09445800385959606	1.9639543022182746	-0.4906447844234951	-0.12258975117173684	1.9015132860507344	-0.4999873497233226
73	2.433333333333333	-0.11071386393800146	1.8697019691568053	-0.38293184511920053	-0.11610545839682662	1.8639378977864332	-0.31965153568321614	-0.11767524454554812	1.7427304415587177	-0.2955752222170413	-0.13135981383018244	1.615128714110748	-0.3517621645055419							-0.12312533516857899	1.621005938097828	-0.315362999972652	-0.10728195008727993	1.8758121675799615	-0.4471486008895643	-0.1026745610209847	1.7496362435692756	-0.46372423914817135	-0.08758996887872958	1.6131369184889934	-0.48425805311056946	-0.12374464585780405	1.5777864727236768	-0.49657925224518046	-0.10962956541592621	1.5824751832087909	-0.5215274409805375	-0.07775503067310191	1.600145519238228	-0.47527706281847276	-0.10236058052164276	2.0161743387009725	-0.36421840937990446	-0.12602522555982937	2.0669986673563665	-0.3397983881409576	-2.6666633784379514	1.9394041526742523	2.9574050179199154	-0.13720367480067538	1.9516973985897312	-0.2280583433942983	-0.15868855470139437	2.0066379684200695	-0.33142470265595997	-0.09843864905243908	2.02893455796822	-0.4455248843767951	-0.09727585543519482	1.9653410132844165	-0.49171122226698266	-0.12257824066723395	1.9016494924906917	-0.5001901891228422
74	2.466666666666667	-0.11344472165309677	1.877354942093319	-0.38547953524695494	-0.11587859933030188	1.868883571438968	-0.3205338574716331	-0.11751236202214506	1.7440353429667512	-0.29596532634249056	-0.13135981383018244	1.615128714110748	-0.3517621645055419							-0.12312533516857899	1.621005938097828	-0.315362999972652	-0.10896830808207919	1.8831353062866383	-0.44606547638641697	-0.10302723852801764	1.7509510210275896	-0.46763774652894347	-0.08818093705667801	1.613815159473652	-0.48826743556506136	-0.12058580392341073	1.579422879948702	-0.4961780052074477	-0.10736980585005475	1.5841849127917782	-0.5243901482606798	-0.07942203985236707	1.6007299279064915	-0.4737171141710834	-0.1058732611757903	2.0193694239146214	-0.35944531922240436	-0.1274375011274007	2.0681055351677924	-0.34008011571085434	-2.6667025074581687	1.940094450350437	2.9572976120051737	-0.14621207674251535	1.9566436283331772	-0.2580242851906331	-0.16030511418498908	2.009255358409074	-0.3486084854521161	-0.10039031628383799	2.0308540588083916	-0.4436469196320042	-0.09896243524070233	1.9656809219622526	-0.49817581324022486	-0.12123786731806459	1.9014344378836185	-0.5055705700738822
75	2.5	-0.1142756793683317	1.8787165129935084	-0.38910331693226363	-0.11668255473098214	1.8701906205400924	-0.3240674768500514	-0.11786628549135857	1.741821355310765	-0.2954966626101065	-0.13135981383018244	1.615128714110748	-0.3517621645055419							-0.12312533516857899	1.621005938097828	-0.315362999972652	-0.10888401808179285	1.8842742592257253	-0.4462751428017821	-0.1034187106779748	1.7510284779405298	-0.4673490685807034	-0.08825641102743478	1.6141752632661535	-0.48818220272588925	-0.12153392207748989	1.5793816722464666	-0.4993768951064071	-0.10941493370242666	1.5839546484971285	-0.5221011726975665	-0.07954021568582711	1.6011547151598544	-0.4736023057000065	-0.10868302772028188	2.020509641944719	-0.361303052205637	-0.12884977669497208	2.069212402979218	-0.3403618432807511	-2.625886064035437	1.943137430489076	2.877496395418545	-0.15522047868435535	1.9615898580766231	-0.28799022698696786	-0.1619216736685838	2.011872748398079	-0.36579226824827227	-0.10129576687499085	2.031090297313024	-0.4468561188111954	-0.09891951630828419	1.966951237965971	-0.4982905620313116	-0.12160296813447453	1.9004568371607262	-0.505793077205941
76	2.533333333333333	-0.11528362634894831	1.8737172499613934	-0.3915812974397495	-0.11705996400492819	1.867754652101802	-0.3237699174223548	-0.11637649753773996	1.740092261313321	-0.296872731606861	-0.13135981383018244	1.615128714110748	-0.3517621645055419							-0.12312533516857899	1.621005938097828	-0.315362999972652	-0.10901149829642039	1.8805549883906159	-0.44586171120627904	-0.10362652469620019	1.7497937310407305	-0.4669930590965856	-0.08877174431743998	1.6116963760300513	-0.4870311037735889	-0.12152663033469864	1.5792184759679395	-0.49941873360523503	-0.10961491128660641	1.5851971422371323	-0.5219058288640601	-0.0799078838950033	1.6004280016103265	-0.4730209789598645	-0.10691446228225629	2.0206147690434935	-0.36357707855188254	-0.13026205226254342	2.0703192707906437	-0.34064357085064784	-2.6185763002934843	1.943029093554873	2.8683849988293164	-0.14802951880448104	1.9551241124889607	-0.2627178186892198	-0.16916859929570854	2.002298388763447	-0.36168575728282754	-0.10127149498233455	2.0323644350450785	-0.4475342847357727	-0.09699413852187598	1.9658376104230308	-0.5007208035953393	-0.12261119547756019	1.899385033911869	-0.5089374871368392
77	2.566666666666667	-0.1160436239550364	1.8725225576640017	-0.39459761374712243	-0.11784859655866438	1.866577778046722	-0.3268014070869815	-0.11437408775876039	1.7408551972264752	-0.2995016465225068	-0.13135981383018244	1.615128714110748	-0.3517621645055419							-0.12312533516857899	1.621005938097828	-0.315362999972652	-0.10986282787075762	1.8805670754427806	-0.4492009227205834	-0.10526098158969883	1.7457906112446786	-0.4646223721525981	-0.08787473079794322	1.6115530458293776	-0.48363644128617894	-0.12352979801048034	1.5791136626533757	-0.4971049814829502	-0.11076812041926327	1.5850772933311763	-0.5162297181883557	-0.0800614569464401	1.59892769946957	-0.4723841616444389	-0.10963144080817638	2.021412067323539	-0.36454424673036306	-0.1316743278301148	2.0714261386020696	-0.3409252984205446	-2.621785406567848	1.943079352079845	2.872000872722585	-0.14464133988918296	1.9456693762120723	-0.24980312052494621	-2.3335858625935586	1.9247726668003575	2.3044881255670373	-0.10414066510212498	2.030817812894209	-0.448030557560931	-0.09572801466938526	1.9671921176068639	-0.5064667664521423	-0.1220957171411362	1.9019550192937544	-0.5181154535886157
78	2.6	-0.11431008806298558	1.8738998262925888	-0.39734745004031274	-0.11698816026422931	1.8693801623630284	-0.33311581921421035	-0.1143266991896129	1.7381018599670799	-0.2992265514863648	-0.13135981383018244	1.615128714110748	-0.3517621645055419							-0.12312533516857899	1.621005938097828	-0.315362999972652	-0.10885473573563158	1.8807952778772876	-0.4548618456304292	-0.10623598117062505	1.747221343714204	-0.4679666410973553	-0.08867704631220266	1.6113891172397115	-0.4870726830517305	-0.12254787585797516	1.5787779684435463	-0.49385747221328585	-0.11078534396849349	1.584982914285527	-0.5161746214748022	-0.07795328659059385	1.5986180292360377	-0.4747370811840773	-0.1088798100883796	2.0191703753031103	-0.3702995443603513	-0.13308660339768613	2.0725330064134955	-0.34120702599044134	-2.6165252080045844	1.9431104347862915	2.855922844663109	-0.14688549430470632	1.9465184490461067	-0.2572212267557482	-0.17791655278345533	1.992390438297583	-0.3293327282376833	-0.10603444148654792	2.0284301330423204	-0.454040435433436	-0.09384792041386686	1.9660872690604796	-0.5087843676230192	-0.12164851951572717	1.9020377786556963	-0.5268047638369294
